<svg width="420" height="595" viewBox="0 0 420 595" fill="none" xmlns="http://www.w3.org/2000/svg">
<rect width="420" height="595" fill="white"/>
<g filter="url(#filter0_i_1_2)">
<path d="M111.019 282.835C128.024 345.654 471.125 401.114 221.051 386.694C121.022 380.927 48 341.644 48 282.835C48 224.027 140 185 194 156C475 32 116.02 219.811 111.019 282.835Z" fill="#CDC364"/>
</g>
<g filter="url(#filter1_i_1_2)">
<g clip-path="url(#clip0_1_2)">
<path d="M305.833 299.909C312.754 299.909 318.354 293.309 318.354 285.242L318.417 204.576C318.417 196.509 312.754 189.909 305.833 189.909H205.167C198.246 189.909 192.583 196.509 192.583 204.576V285.242C192.583 293.309 198.246 299.909 205.167 299.909H180C180 307.976 185.662 314.576 192.583 314.576H318.417C325.337 314.576 331 307.976 331 299.909H305.833ZM205.167 204.576H305.833V285.242H205.167V204.576ZM255.5 307.242C252.04 307.242 249.208 303.942 249.208 299.909C249.208 295.876 252.04 292.576 255.5 292.576C258.96 292.576 261.792 295.876 261.792 299.909C261.792 303.942 258.96 307.242 255.5 307.242Z" fill="#5C8EEE" fill-opacity="0.9"/>
<path d="M283.945 247.782L276.13 239.577C275.641 239.064 274.979 238.776 274.288 238.776C273.597 238.776 272.934 239.064 272.446 239.577L248.236 264.995V277.068H259.735L283.945 251.65C284.434 251.137 284.708 250.441 284.708 249.716C284.708 248.991 284.434 248.295 283.945 247.782ZM257.578 271.597H253.446V267.259L266.472 253.584L270.604 257.922L257.578 271.597ZM274.288 254.054L270.156 249.716L274.288 245.378L278.42 249.716L274.288 254.054ZM258.657 230.57V225.1H253.076C252.834 224.121 252.461 223.183 251.969 222.313L255.921 218.164L252.237 214.296L248.285 218.445C247.457 217.929 246.563 217.538 245.631 217.283V211.424H240.42V217.283C239.488 217.538 238.594 217.929 237.765 218.445L233.813 214.296L230.13 218.164L234.082 222.313C233.59 223.183 233.217 224.121 232.975 225.1H227.394V230.57H232.975C233.217 231.549 233.59 232.487 234.082 233.357L230.13 237.507L233.813 241.374L237.765 237.225C238.594 237.741 239.488 238.132 240.42 238.387V244.246H245.631V238.387C246.563 238.132 247.457 237.741 248.285 237.225L252.237 241.374L255.921 237.507L251.969 233.357C252.461 232.487 252.834 231.549 253.076 230.57H258.657ZM243.025 233.305C241.995 233.305 240.987 232.985 240.131 232.383C239.274 231.782 238.606 230.928 238.212 229.928C237.817 228.929 237.714 227.829 237.915 226.768C238.116 225.707 238.612 224.732 239.341 223.967C240.07 223.202 240.998 222.681 242.009 222.47C243.02 222.259 244.067 222.367 245.019 222.781C245.971 223.195 246.785 223.896 247.358 224.796C247.93 225.696 248.236 226.753 248.236 227.835C248.234 229.285 247.685 230.676 246.708 231.702C245.731 232.727 244.407 233.304 243.025 233.305Z" fill="#B9B789"/>
<path d="M210.77 332.124H213.805L217.009 339.942H217.145L220.35 332.124H223.384V343.76H220.998V336.187H220.901L217.89 343.704H216.265L213.253 336.158H213.157V343.76H210.77V332.124ZM227.871 332.124V343.76H225.411V332.124H227.871ZM239.628 332.124V343.76H237.503L232.441 336.437H232.356V343.76H229.895V332.124H232.055L237.077 339.442H237.18V332.124H239.628ZM241.661 343.76V332.124H246.252C247.135 332.124 247.886 332.293 248.508 332.63C249.129 332.963 249.602 333.427 249.928 334.022C250.258 334.613 250.422 335.295 250.422 336.067C250.422 336.84 250.256 337.522 249.922 338.113C249.589 338.704 249.106 339.164 248.474 339.493C247.845 339.823 247.083 339.988 246.19 339.988H243.263V338.016H245.792C246.265 338.016 246.655 337.935 246.962 337.772C247.273 337.605 247.504 337.376 247.655 337.084C247.811 336.789 247.888 336.45 247.888 336.067C247.888 335.681 247.811 335.344 247.655 335.056C247.504 334.764 247.273 334.539 246.962 334.38C246.652 334.217 246.258 334.135 245.78 334.135H244.121V343.76H241.661ZM262.714 337.942C262.714 339.211 262.473 340.291 261.992 341.181C261.515 342.071 260.863 342.751 260.038 343.221C259.216 343.687 258.291 343.92 257.265 343.92C256.231 343.92 255.303 343.685 254.481 343.215C253.659 342.745 253.009 342.065 252.532 341.175C252.055 340.285 251.816 339.207 251.816 337.942C251.816 336.673 252.055 335.594 252.532 334.704C253.009 333.814 253.659 333.135 254.481 332.67C255.303 332.2 256.231 331.965 257.265 331.965C258.291 331.965 259.216 332.2 260.038 332.67C260.863 333.135 261.515 333.814 261.992 334.704C262.473 335.594 262.714 336.673 262.714 337.942ZM260.219 337.942C260.219 337.12 260.096 336.427 259.85 335.863C259.608 335.298 259.265 334.87 258.822 334.579C258.378 334.287 257.86 334.141 257.265 334.141C256.67 334.141 256.151 334.287 255.708 334.579C255.265 334.87 254.92 335.298 254.674 335.863C254.431 336.427 254.31 337.12 254.31 337.942C254.31 338.764 254.431 339.457 254.674 340.022C254.92 340.586 255.265 341.014 255.708 341.306C256.151 341.598 256.67 341.743 257.265 341.743C257.86 341.743 258.378 341.598 258.822 341.306C259.265 341.014 259.608 340.586 259.85 340.022C260.096 339.457 260.219 338.764 260.219 337.942ZM270.849 335.471C270.803 335.012 270.608 334.656 270.263 334.403C269.919 334.149 269.451 334.022 268.86 334.022C268.458 334.022 268.119 334.079 267.843 334.192C267.566 334.302 267.354 334.456 267.207 334.653C267.063 334.849 266.991 335.073 266.991 335.323C266.983 335.531 267.027 335.713 267.121 335.868C267.22 336.024 267.354 336.158 267.525 336.272C267.695 336.382 267.892 336.478 268.116 336.562C268.339 336.641 268.578 336.709 268.832 336.766L269.877 337.016C270.385 337.13 270.851 337.281 271.275 337.471C271.699 337.66 272.066 337.893 272.377 338.17C272.688 338.446 272.928 338.772 273.099 339.147C273.273 339.522 273.362 339.952 273.366 340.437C273.362 341.149 273.18 341.766 272.82 342.289C272.464 342.808 271.949 343.211 271.275 343.499C270.604 343.783 269.796 343.925 268.849 343.925C267.909 343.925 267.091 343.781 266.394 343.493C265.701 343.206 265.159 342.779 264.769 342.215C264.383 341.647 264.18 340.944 264.161 340.107H266.542C266.568 340.497 266.68 340.823 266.877 341.084C267.078 341.342 267.345 341.537 267.678 341.67C268.015 341.798 268.396 341.863 268.82 341.863C269.237 341.863 269.599 341.802 269.905 341.681C270.216 341.56 270.457 341.391 270.627 341.175C270.797 340.959 270.883 340.711 270.883 340.431C270.883 340.17 270.805 339.95 270.65 339.772C270.498 339.594 270.275 339.442 269.979 339.317C269.688 339.192 269.33 339.079 268.905 338.976L267.638 338.658C266.657 338.42 265.883 338.046 265.315 337.539C264.746 337.031 264.464 336.348 264.468 335.488C264.464 334.783 264.652 334.168 265.03 333.641C265.413 333.115 265.938 332.704 266.604 332.408C267.271 332.113 268.029 331.965 268.877 331.965C269.741 331.965 270.494 332.113 271.138 332.408C271.786 332.704 272.29 333.115 272.65 333.641C273.01 334.168 273.195 334.778 273.207 335.471H270.849ZM274.577 334.153V332.124H284.134V334.153H280.572V343.76H278.14V334.153H274.577ZM285.708 343.76V332.124H293.549V334.153H288.168V336.925H293.145V338.954H288.168V341.732H293.572V343.76H285.708ZM295.505 343.76V332.124H297.965V341.732H302.954V343.76H295.505Z" fill="black"/>
</g>
</g>
<defs>
<filter id="filter0_i_1_2" x="48" y="114.564" width="268" height="282.436" filterUnits="userSpaceOnUse" color-interpolation-filters="sRGB">
<feFlood flood-opacity="0" result="BackgroundImageFix"/>
<feBlend mode="normal" in="SourceGraphic" in2="BackgroundImageFix" result="shape"/>
<feColorMatrix in="SourceAlpha" type="matrix" values="0 0 0 0 0 0 0 0 0 0 0 0 0 0 0 0 0 0 127 0" result="hardAlpha"/>
<feOffset dx="4" dy="8"/>
<feGaussianBlur stdDeviation="5"/>
<feComposite in2="hardAlpha" operator="arithmetic" k2="-1" k3="1"/>
<feColorMatrix type="matrix" values="0 0 0 0 0.324583 0 0 0 0 0.612275 0 0 0 0 0.95 0 0 0 0.93 0"/>
<feBlend mode="normal" in2="shape" result="effect1_innerShadow_1_2"/>
</filter>
<filter id="filter1_i_1_2" x="180" y="177" width="161" height="186" filterUnits="userSpaceOnUse" color-interpolation-filters="sRGB">
<feFlood flood-opacity="0" result="BackgroundImageFix"/>
<feBlend mode="normal" in="SourceGraphic" in2="BackgroundImageFix" result="shape"/>
<feColorMatrix in="SourceAlpha" type="matrix" values="0 0 0 0 0 0 0 0 0 0 0 0 0 0 0 0 0 0 127 0" result="hardAlpha"/>
<feOffset dx="10" dy="10"/>
<feGaussianBlur stdDeviation="10"/>
<feComposite in2="hardAlpha" operator="arithmetic" k2="-1" k3="1"/>
<feColorMatrix type="matrix" values="0 0 0 0 0 0 0 0 0 0 0 0 0 0 0 0 0 0 0.25 0"/>
<feBlend mode="normal" in2="shape" result="effect1_innerShadow_1_2"/>
</filter>
<clipPath id="clip0_1_2">
<rect width="151" height="176" fill="white" transform="translate(180 177)"/>
</clipPath>
</defs>
</svg>
